<svg id="Layer_1" data-name="Layer 1" xmlns="http://www.w3.org/2000/svg" xmlns:xlink="http://www.w3.org/1999/xlink" viewBox="0 0 492.18 112.85"><defs><style>.cls-1{fill:url(#linear-gradient);}.cls-2{fill:url(#linear-gradient-2);}</style><linearGradient id="linear-gradient" y1="52.47" x2="92.56" y2="52.47" gradientUnits="userSpaceOnUse"><stop offset="0" stop-color="#d12026"/><stop offset="0.14" stop-color="#c31f26"/><stop offset="0.41" stop-color="#9f1d27"/><stop offset="0.76" stop-color="#661a29"/><stop offset="1" stop-color="#3c182a"/></linearGradient><linearGradient id="linear-gradient-2" x1="127.97" y1="49.15" x2="484.72" y2="49.15" xlink:href="#linear-gradient"/></defs><path class="cls-1" d="M92.56,52.65C92.5,78.51,71.69,99,45.34,98.71,20,98.39,0,77.53,0,52.4,0,27,21.38,5.46,48.25,6.26,72.17,7,92.62,27.8,92.56,52.65Zm-10.79-.14a11.65,11.65,0,0,0-11.7-11.86,12,12,0,0,0-12,11.71,11.86,11.86,0,0,0,12,11.91A11.49,11.49,0,0,0,81.77,52.51ZM58,29.09c.08-6.82-4.77-12-11.35-12.08A11.67,11.67,0,0,0,34.46,28.66,12,12,0,0,0,46.09,40.73,11.79,11.79,0,0,0,58,29.09ZM22.53,64.28A11.76,11.76,0,0,0,34.48,52.67a11.89,11.89,0,1,0-23.78-.15A11.75,11.75,0,0,0,22.53,64.28ZM58,76.44A11.81,11.81,0,0,0,46.34,64.25,12,12,0,0,0,34.47,76a11.83,11.83,0,0,0,11.79,12.1A11.61,11.61,0,0,0,58,76.44Zm-11.85-29a4.78,4.78,0,0,0-5.07,5.25,4.86,4.86,0,0,0,5.2,4.82,5,5,0,1,0-.13-10.07Z"/><path d="M135.87,86.05A7.81,7.81,0,0,1,130,84,8.22,8.22,0,0,1,128,78V23a8.26,8.26,0,0,1,2.1-6.1,8.12,8.12,0,0,1,6-2.1h34.1a6.51,6.51,0,0,1,4.7,1.55,5.9,5.9,0,0,1,1.6,4.45,6,6,0,0,1-1.6,4.55,6.51,6.51,0,0,1-4.7,1.55h-26.7V44h24.6a6.37,6.37,0,0,1,4.6,1.55,6,6,0,0,1,1.6,4.55,6.08,6.08,0,0,1-1.6,4.5,6.22,6.22,0,0,1-4.6,1.6h-24.6V78Q143.47,86,135.87,86.05Z"/><path d="M205.37,86.25q-8.9,0-13.3-4.9t-4.4-14.7V21.55q0-3.8,2-5.7a7.65,7.65,0,0,1,5.5-1.9,7.75,7.75,0,0,1,5.65,1.9q2,1.91,2,5.7v44.5q0,4.1,1.75,6a6,6,0,0,0,4.65,2,11.21,11.21,0,0,0,1.55-.1l1.45-.2a2.18,2.18,0,0,1,2.25,1,10.94,10.94,0,0,1,.65,4.65,7.39,7.39,0,0,1-1.2,4.5,5.46,5.46,0,0,1-3.7,2c-.6.07-1.33.13-2.2.2S206.24,86.25,205.37,86.25Z"/><path d="M228.47,27.25a9,9,0,0,1-6.3-2,7.29,7.29,0,0,1-2.2-5.7,7,7,0,0,1,2.2-5.55,9.18,9.18,0,0,1,6.3-1.95A9.56,9.56,0,0,1,234.92,14a7,7,0,0,1,2.25,5.55,7.22,7.22,0,0,1-2.25,5.7A9.42,9.42,0,0,1,228.47,27.25Zm0,58.8A7.14,7.14,0,0,1,223,83.9a8.51,8.51,0,0,1-2-6.05V43.55c0-2.67.66-4.68,2-6a7.3,7.3,0,0,1,5.5-2,7.43,7.43,0,0,1,5.65,2c1.3,1.37,1.95,3.38,1.95,6v34.3a8.86,8.86,0,0,1-1.9,6.05A7.23,7.23,0,0,1,228.47,86.05Z"/><path d="M271.67,86.25a29.42,29.42,0,0,1-13.9-3.1,21.93,21.93,0,0,1-9.15-8.9,27.55,27.55,0,0,1-3.25-13.7,29.46,29.46,0,0,1,1.8-10.6,21.61,21.61,0,0,1,5.25-8,23.19,23.19,0,0,1,8.35-5.05,32.77,32.77,0,0,1,17.55-1,29.12,29.12,0,0,1,6.95,2.45,6.24,6.24,0,0,1,2.65,2.7,6.25,6.25,0,0,1-.7,6.45,5,5,0,0,1-2.65,1.8,5,5,0,0,1-3.6-.55,19.29,19.29,0,0,0-4-1.55,14.77,14.77,0,0,0-3.85-.55,13.85,13.85,0,0,0-5.3,1A10.16,10.16,0,0,0,264,50.3a12,12,0,0,0-2.4,4.35,18.84,18.84,0,0,0-.85,5.9q0,6.6,3.25,10.45t9.15,3.85a15.89,15.89,0,0,0,3.8-.5,16.88,16.88,0,0,0,4-1.6,4.66,4.66,0,0,1,3.55-.5,5.3,5.3,0,0,1,2.6,1.85,5.45,5.45,0,0,1,1.15,3.1,6.93,6.93,0,0,1-.65,3.35,5.28,5.28,0,0,1-2.65,2.5,24.14,24.14,0,0,1-6.75,2.5A32.78,32.78,0,0,1,271.67,86.25Z"/><path d="M303.07,86.05a6.87,6.87,0,0,1-7.5-7.6V21.55c0-2.53.66-4.43,2-5.7a7.63,7.63,0,0,1,5.5-1.9,7.77,7.77,0,0,1,5.65,1.9q1.95,1.91,1.95,5.7v35h.2l14.5-16.1a21.77,21.77,0,0,1,4-3.85,8.68,8.68,0,0,1,5-1.25,6.52,6.52,0,0,1,4.8,1.6,5.49,5.49,0,0,1,1.65,3.85,7.15,7.15,0,0,1-1.95,4.65l-15.3,16.9v-5.7l17,19.6a6.49,6.49,0,0,1,1.65,4.7,5.18,5.18,0,0,1-2.1,3.7,7.36,7.36,0,0,1-4.55,1.4,10.4,10.4,0,0,1-5.45-1.25A16.71,16.71,0,0,1,326,81l-15.1-16.9h-.2v14.4Q310.67,86.06,303.07,86.05Z"/><path d="M360.57,86.05a7.78,7.78,0,0,1-5.85-2.1,8.22,8.22,0,0,1-2.05-6V23a8.26,8.26,0,0,1,2.1-6.1,8.12,8.12,0,0,1,6-2.1h34.1a6.53,6.53,0,0,1,4.7,1.55,5.94,5.94,0,0,1,1.6,4.45,6.07,6.07,0,0,1-1.6,4.55,6.53,6.53,0,0,1-4.7,1.55h-26.7V44h24.6a6.37,6.37,0,0,1,4.6,1.55,6.07,6.07,0,0,1,1.6,4.55,6.12,6.12,0,0,1-1.6,4.5,6.22,6.22,0,0,1-4.6,1.6h-24.6V78Q368.17,86,360.57,86.05Z"/><path d="M419.87,27.25a9,9,0,0,1-6.3-2,7.29,7.29,0,0,1-2.2-5.7,7,7,0,0,1,2.2-5.55,9.18,9.18,0,0,1,6.3-1.95A9.56,9.56,0,0,1,426.32,14a7,7,0,0,1,2.25,5.55,7.22,7.22,0,0,1-2.25,5.7A9.42,9.42,0,0,1,419.87,27.25Zm0,58.8a7.14,7.14,0,0,1-5.5-2.15,8.51,8.51,0,0,1-2-6.05V43.55c0-2.67.66-4.68,2-6a7.3,7.3,0,0,1,5.5-2,7.43,7.43,0,0,1,5.65,2c1.3,1.37,2,3.38,2,6v34.3a8.86,8.86,0,0,1-1.9,6.05A7.23,7.23,0,0,1,419.87,86.05Z"/><path d="M444.37,86a6.47,6.47,0,0,1-4.45-1.55,5.17,5.17,0,0,1-1.8-4,7.42,7.42,0,0,1,2.05-4.9l15.4-19v6.9l-14.4-17.8a7.14,7.14,0,0,1-2-4.85A5.35,5.35,0,0,1,441,36.9a6.33,6.33,0,0,1,4.41-1.55,10.55,10.55,0,0,1,4.7.9,9.22,9.22,0,0,1,3.3,3l10.7,13.8h-5.3l10.8-13.8a10.14,10.14,0,0,1,3.35-3,9.68,9.68,0,0,1,4.45-.9,6.13,6.13,0,0,1,4.45,1.6,5.65,5.65,0,0,1,1.75,3.95,7.23,7.23,0,0,1-2,4.85l-14.4,17.6v-6.7l15.6,18.9a7.24,7.24,0,0,1,1.94,4.8,5.36,5.36,0,0,1-1.79,4,6.48,6.48,0,0,1-4.55,1.6,9.61,9.61,0,0,1-4.5-1,11.11,11.11,0,0,1-3.41-3l-11.69-14.9H464l-11.79,14.9a11.13,11.13,0,0,1-3.3,2.9A9.13,9.13,0,0,1,444.37,86Z"/><path class="cls-2" d="M135.87,86.05A7.81,7.81,0,0,1,130,84,8.22,8.22,0,0,1,128,78V23a8.26,8.26,0,0,1,2.1-6.1,8.12,8.12,0,0,1,6-2.1h34.1a6.51,6.51,0,0,1,4.7,1.55,5.9,5.9,0,0,1,1.6,4.45,6,6,0,0,1-1.6,4.55,6.51,6.51,0,0,1-4.7,1.55h-26.7V44h24.6a6.37,6.37,0,0,1,4.6,1.55,6,6,0,0,1,1.6,4.55,6.08,6.08,0,0,1-1.6,4.5,6.22,6.22,0,0,1-4.6,1.6h-24.6V78Q143.47,86,135.87,86.05Z"/><path class="cls-2" d="M205.37,86.25q-8.9,0-13.3-4.9t-4.4-14.7V21.55q0-3.8,2-5.7a7.65,7.65,0,0,1,5.5-1.9,7.75,7.75,0,0,1,5.65,1.9q2,1.91,2,5.7v44.5q0,4.1,1.75,6a6,6,0,0,0,4.65,2,11.21,11.21,0,0,0,1.55-.1l1.45-.2a2.18,2.18,0,0,1,2.25,1,10.94,10.94,0,0,1,.65,4.65,7.39,7.39,0,0,1-1.2,4.5,5.46,5.46,0,0,1-3.7,2c-.6.07-1.33.13-2.2.2S206.24,86.25,205.37,86.25Z"/><path class="cls-2" d="M228.47,27.25a9,9,0,0,1-6.3-2,7.29,7.29,0,0,1-2.2-5.7,7,7,0,0,1,2.2-5.55,9.18,9.18,0,0,1,6.3-1.95A9.56,9.56,0,0,1,234.92,14a7,7,0,0,1,2.25,5.55,7.22,7.22,0,0,1-2.25,5.7A9.42,9.42,0,0,1,228.47,27.25Zm0,58.8A7.14,7.14,0,0,1,223,83.9a8.51,8.51,0,0,1-2-6.05V43.55c0-2.67.66-4.68,2-6a7.3,7.3,0,0,1,5.5-2,7.43,7.43,0,0,1,5.65,2c1.3,1.37,1.95,3.38,1.95,6v34.3a8.86,8.86,0,0,1-1.9,6.05A7.23,7.23,0,0,1,228.47,86.05Z"/><path class="cls-2" d="M271.67,86.25a29.42,29.42,0,0,1-13.9-3.1,21.93,21.93,0,0,1-9.15-8.9,27.55,27.55,0,0,1-3.25-13.7,29.46,29.46,0,0,1,1.8-10.6,21.61,21.61,0,0,1,5.25-8,23.19,23.19,0,0,1,8.35-5.05,32.77,32.77,0,0,1,17.55-1,29.12,29.12,0,0,1,6.95,2.45,6.24,6.24,0,0,1,2.65,2.7,6.25,6.25,0,0,1-.7,6.45,5,5,0,0,1-2.65,1.8,5,5,0,0,1-3.6-.55,19.29,19.29,0,0,0-4-1.55,14.77,14.77,0,0,0-3.85-.55,13.85,13.85,0,0,0-5.3,1A10.16,10.16,0,0,0,264,50.3a12,12,0,0,0-2.4,4.35,18.84,18.84,0,0,0-.85,5.9q0,6.6,3.25,10.45t9.15,3.85a15.89,15.89,0,0,0,3.8-.5,16.88,16.88,0,0,0,4-1.6,4.66,4.66,0,0,1,3.55-.5,5.3,5.3,0,0,1,2.6,1.85,5.45,5.45,0,0,1,1.15,3.1,6.93,6.93,0,0,1-.65,3.35,5.28,5.28,0,0,1-2.65,2.5,24.14,24.14,0,0,1-6.75,2.5A32.78,32.78,0,0,1,271.67,86.25Z"/><path class="cls-2" d="M303.07,86.05a6.87,6.87,0,0,1-7.5-7.6V21.55c0-2.53.66-4.43,2-5.7a7.63,7.63,0,0,1,5.5-1.9,7.77,7.77,0,0,1,5.65,1.9q1.95,1.91,1.95,5.7v35h.2l14.5-16.1a21.77,21.77,0,0,1,4-3.85,8.68,8.68,0,0,1,5-1.25,6.52,6.52,0,0,1,4.8,1.6,5.49,5.49,0,0,1,1.65,3.85,7.15,7.15,0,0,1-1.95,4.65l-15.3,16.9v-5.7l17,19.6a6.49,6.49,0,0,1,1.65,4.7,5.18,5.18,0,0,1-2.1,3.7,7.36,7.36,0,0,1-4.55,1.4,10.4,10.4,0,0,1-5.45-1.25A16.71,16.71,0,0,1,326,81l-15.1-16.9h-.2v14.4Q310.67,86.06,303.07,86.05Z"/><path class="cls-2" d="M360.57,86.05a7.78,7.78,0,0,1-5.85-2.1,8.22,8.22,0,0,1-2.05-6V23a8.26,8.26,0,0,1,2.1-6.1,8.12,8.12,0,0,1,6-2.1h34.1a6.53,6.53,0,0,1,4.7,1.55,5.94,5.94,0,0,1,1.6,4.45,6.07,6.07,0,0,1-1.6,4.55,6.53,6.53,0,0,1-4.7,1.55h-26.7V44h24.6a6.37,6.37,0,0,1,4.6,1.55,6.07,6.07,0,0,1,1.6,4.55,6.12,6.12,0,0,1-1.6,4.5,6.22,6.22,0,0,1-4.6,1.6h-24.6V78Q368.17,86,360.57,86.05Z"/><path class="cls-2" d="M419.87,27.25a9,9,0,0,1-6.3-2,7.29,7.29,0,0,1-2.2-5.7,7,7,0,0,1,2.2-5.55,9.18,9.18,0,0,1,6.3-1.95A9.56,9.56,0,0,1,426.32,14a7,7,0,0,1,2.25,5.55,7.22,7.22,0,0,1-2.25,5.7A9.42,9.42,0,0,1,419.87,27.25Zm0,58.8a7.14,7.14,0,0,1-5.5-2.15,8.51,8.51,0,0,1-2-6.05V43.55c0-2.67.66-4.68,2-6a7.3,7.3,0,0,1,5.5-2,7.43,7.43,0,0,1,5.65,2c1.3,1.37,2,3.38,2,6v34.3a8.86,8.86,0,0,1-1.9,6.05A7.23,7.23,0,0,1,419.87,86.05Z"/><path class="cls-2" d="M444.37,86a6.47,6.47,0,0,1-4.45-1.55,5.17,5.17,0,0,1-1.8-4,7.42,7.42,0,0,1,2.05-4.9l15.4-19v6.9l-14.4-17.8a7.14,7.14,0,0,1-2-4.85A5.35,5.35,0,0,1,441,36.9a6.33,6.33,0,0,1,4.41-1.55,10.55,10.55,0,0,1,4.7.9,9.22,9.22,0,0,1,3.3,3l10.7,13.8h-5.3l10.8-13.8a10.14,10.14,0,0,1,3.35-3,9.68,9.68,0,0,1,4.45-.9,6.13,6.13,0,0,1,4.45,1.6,5.65,5.65,0,0,1,1.75,3.95,7.23,7.23,0,0,1-2,4.85l-14.4,17.6v-6.7l15.6,18.9a7.24,7.24,0,0,1,1.94,4.8,5.36,5.36,0,0,1-1.79,4,6.48,6.48,0,0,1-4.55,1.6,9.61,9.61,0,0,1-4.5-1,11.11,11.11,0,0,1-3.41-3l-11.69-14.9H464l-11.79,14.9a11.13,11.13,0,0,1-3.3,2.9A9.13,9.13,0,0,1,444.37,86Z"/></svg>