<svg width="534" height="541" viewBox="0 0 534 541" fill="none" xmlns="http://www.w3.org/2000/svg">
<path d="M433.334 219.375C433.334 267.785 417.813 312.503 391.667 348.786L523.541 482.414C536.561 495.599 536.561 517.007 523.541 530.191C510.521 543.375 489.376 543.375 476.353 530.191L344.478 396.563C308.647 423.141 264.479 438.75 216.667 438.75C96.9791 438.75 0 340.559 0 219.375C0 98.1915 96.9791 0 216.667 0C336.353 0 433.334 98.1915 433.334 219.375ZM216.667 371.25C236.365 371.25 255.87 367.322 274.069 359.689C292.267 352.056 308.804 340.87 322.734 326.768C336.661 312.663 347.71 295.923 355.25 277.495C362.788 259.069 366.666 239.32 366.666 219.375C366.666 199.43 362.788 179.681 355.25 161.255C347.71 142.829 336.661 126.086 322.734 111.983C308.804 97.8801 292.267 86.6932 274.069 79.0609C255.87 71.4285 236.365 67.5 216.667 67.5C196.969 67.5 177.463 71.4285 159.264 79.0609C141.065 86.6932 124.529 97.8801 110.601 111.983C96.672 126.086 85.6229 142.829 78.0847 161.255C70.5466 179.681 66.6666 199.43 66.6666 219.375C66.6666 239.32 70.5466 259.069 78.0847 277.495C85.6229 295.923 96.672 312.663 110.601 326.768C124.529 340.87 141.065 352.056 159.264 359.689C177.463 367.322 196.969 371.25 216.667 371.25Z" fill="#ACACAC"/>
</svg>
