<svg width="547" height="529" viewBox="0 0 547 529" fill="none" xmlns="http://www.w3.org/2000/svg">
<g clip-path="url(#clip0_514_289)">
<path d="M302.887 18.5976C297.405 7.23243 285.816 0 273.091 0C260.366 0 248.882 7.23243 243.295 18.5976L176.771 155.29L28.2023 177.194C15.7873 179.054 5.44135 187.733 1.61322 199.615C-2.21479 211.497 0.889017 224.618 9.78648 233.401L117.592 339.924L92.1406 490.462C90.0714 502.859 95.2444 515.466 105.487 522.802C115.729 530.137 129.283 531.066 140.456 525.176L273.194 454.402L405.934 525.176C417.109 531.066 430.66 530.24 440.904 522.802C451.146 515.361 456.319 502.859 454.25 490.462L428.695 339.924L536.5 233.401C545.399 224.618 548.604 211.497 544.673 199.615C540.741 187.733 530.5 179.054 518.084 177.194L369.414 155.29L302.887 18.5976Z" fill="#FFDA58"/>
</g>
<defs>
<clipPath id="clip0_514_289">
<rect width="547" height="529" fill="white"/>
</clipPath>
</defs>
</svg>
